<mxfile host="Electron" agent="Mozilla/5.0 (X11; Linux x86_64) AppleWebKit/537.36 (KHTML, like Gecko) draw.io/26.2.2 Chrome/134.0.6998.178 Electron/35.1.2 Safari/537.36" version="26.2.2">
  <diagram name="Page-1" id="qbk0ohgAR5D-Sg6K0dn2">
    <mxGraphModel dx="2778" dy="1458" grid="1" gridSize="10" guides="1" tooltips="1" connect="1" arrows="1" fold="1" page="1" pageScale="1" pageWidth="850" pageHeight="1100" math="0" shadow="0">
      <root>
        <mxCell id="0" />
        <mxCell id="1" parent="0" />
        <mxCell id="tFuoKVOrlk1BkcrprUGc-5" style="edgeStyle=orthogonalEdgeStyle;rounded=0;orthogonalLoop=1;jettySize=auto;html=1;" edge="1" parent="1" source="tFuoKVOrlk1BkcrprUGc-1" target="tFuoKVOrlk1BkcrprUGc-4">
          <mxGeometry relative="1" as="geometry" />
        </mxCell>
        <mxCell id="tFuoKVOrlk1BkcrprUGc-1" value="Main" style="rounded=1;whiteSpace=wrap;html=1;arcSize=50;" vertex="1" parent="1">
          <mxGeometry x="365" y="60" width="120" height="60" as="geometry" />
        </mxCell>
        <mxCell id="tFuoKVOrlk1BkcrprUGc-7" style="edgeStyle=orthogonalEdgeStyle;rounded=0;orthogonalLoop=1;jettySize=auto;html=1;" edge="1" parent="1" source="tFuoKVOrlk1BkcrprUGc-4" target="tFuoKVOrlk1BkcrprUGc-6">
          <mxGeometry relative="1" as="geometry" />
        </mxCell>
        <mxCell id="tFuoKVOrlk1BkcrprUGc-4" value="size &amp;lt;-- size of int" style="rounded=0;whiteSpace=wrap;html=1;" vertex="1" parent="1">
          <mxGeometry x="365" y="190" width="120" height="60" as="geometry" />
        </mxCell>
        <mxCell id="tFuoKVOrlk1BkcrprUGc-11" style="edgeStyle=orthogonalEdgeStyle;rounded=0;orthogonalLoop=1;jettySize=auto;html=1;" edge="1" parent="1" source="tFuoKVOrlk1BkcrprUGc-6" target="tFuoKVOrlk1BkcrprUGc-9">
          <mxGeometry relative="1" as="geometry" />
        </mxCell>
        <mxCell id="tFuoKVOrlk1BkcrprUGc-6" value="size" style="shape=parallelogram;perimeter=parallelogramPerimeter;whiteSpace=wrap;html=1;fixedSize=1;" vertex="1" parent="1">
          <mxGeometry x="365" y="300" width="120" height="60" as="geometry" />
        </mxCell>
        <mxCell id="tFuoKVOrlk1BkcrprUGc-8" style="edgeStyle=orthogonalEdgeStyle;rounded=0;orthogonalLoop=1;jettySize=auto;html=1;" edge="1" parent="1" source="tFuoKVOrlk1BkcrprUGc-9" target="tFuoKVOrlk1BkcrprUGc-10">
          <mxGeometry relative="1" as="geometry" />
        </mxCell>
        <mxCell id="tFuoKVOrlk1BkcrprUGc-9" value="size &amp;lt;-- size of float" style="rounded=0;whiteSpace=wrap;html=1;" vertex="1" parent="1">
          <mxGeometry x="365" y="420" width="120" height="60" as="geometry" />
        </mxCell>
        <mxCell id="tFuoKVOrlk1BkcrprUGc-15" style="edgeStyle=orthogonalEdgeStyle;rounded=0;orthogonalLoop=1;jettySize=auto;html=1;" edge="1" parent="1" source="tFuoKVOrlk1BkcrprUGc-10" target="tFuoKVOrlk1BkcrprUGc-13">
          <mxGeometry relative="1" as="geometry" />
        </mxCell>
        <mxCell id="tFuoKVOrlk1BkcrprUGc-10" value="size" style="shape=parallelogram;perimeter=parallelogramPerimeter;whiteSpace=wrap;html=1;fixedSize=1;" vertex="1" parent="1">
          <mxGeometry x="365" y="530" width="120" height="60" as="geometry" />
        </mxCell>
        <mxCell id="tFuoKVOrlk1BkcrprUGc-12" style="edgeStyle=orthogonalEdgeStyle;rounded=0;orthogonalLoop=1;jettySize=auto;html=1;" edge="1" parent="1" source="tFuoKVOrlk1BkcrprUGc-13" target="tFuoKVOrlk1BkcrprUGc-14">
          <mxGeometry relative="1" as="geometry" />
        </mxCell>
        <mxCell id="tFuoKVOrlk1BkcrprUGc-13" value="size &amp;lt;-- size of double" style="rounded=0;whiteSpace=wrap;html=1;" vertex="1" parent="1">
          <mxGeometry x="365" y="650" width="120" height="60" as="geometry" />
        </mxCell>
        <mxCell id="tFuoKVOrlk1BkcrprUGc-19" style="edgeStyle=orthogonalEdgeStyle;rounded=0;orthogonalLoop=1;jettySize=auto;html=1;" edge="1" parent="1" source="tFuoKVOrlk1BkcrprUGc-14" target="tFuoKVOrlk1BkcrprUGc-17">
          <mxGeometry relative="1" as="geometry" />
        </mxCell>
        <mxCell id="tFuoKVOrlk1BkcrprUGc-14" value="size" style="shape=parallelogram;perimeter=parallelogramPerimeter;whiteSpace=wrap;html=1;fixedSize=1;" vertex="1" parent="1">
          <mxGeometry x="365" y="760" width="120" height="60" as="geometry" />
        </mxCell>
        <mxCell id="tFuoKVOrlk1BkcrprUGc-16" style="edgeStyle=orthogonalEdgeStyle;rounded=0;orthogonalLoop=1;jettySize=auto;html=1;" edge="1" parent="1" source="tFuoKVOrlk1BkcrprUGc-17" target="tFuoKVOrlk1BkcrprUGc-18">
          <mxGeometry relative="1" as="geometry" />
        </mxCell>
        <mxCell id="tFuoKVOrlk1BkcrprUGc-17" value="size &amp;lt;-- size of char" style="rounded=0;whiteSpace=wrap;html=1;" vertex="1" parent="1">
          <mxGeometry x="365" y="870" width="120" height="60" as="geometry" />
        </mxCell>
        <mxCell id="tFuoKVOrlk1BkcrprUGc-23" style="edgeStyle=orthogonalEdgeStyle;rounded=0;orthogonalLoop=1;jettySize=auto;html=1;" edge="1" parent="1" source="tFuoKVOrlk1BkcrprUGc-18" target="tFuoKVOrlk1BkcrprUGc-21">
          <mxGeometry relative="1" as="geometry" />
        </mxCell>
        <mxCell id="tFuoKVOrlk1BkcrprUGc-18" value="size" style="shape=parallelogram;perimeter=parallelogramPerimeter;whiteSpace=wrap;html=1;fixedSize=1;" vertex="1" parent="1">
          <mxGeometry x="365" y="980" width="120" height="60" as="geometry" />
        </mxCell>
        <mxCell id="tFuoKVOrlk1BkcrprUGc-20" style="edgeStyle=orthogonalEdgeStyle;rounded=0;orthogonalLoop=1;jettySize=auto;html=1;" edge="1" parent="1" source="tFuoKVOrlk1BkcrprUGc-21" target="tFuoKVOrlk1BkcrprUGc-22">
          <mxGeometry relative="1" as="geometry" />
        </mxCell>
        <mxCell id="tFuoKVOrlk1BkcrprUGc-21" value="size &amp;lt;-- size of void" style="rounded=0;whiteSpace=wrap;html=1;" vertex="1" parent="1">
          <mxGeometry x="365" y="1100" width="120" height="60" as="geometry" />
        </mxCell>
        <mxCell id="tFuoKVOrlk1BkcrprUGc-25" style="edgeStyle=orthogonalEdgeStyle;rounded=0;orthogonalLoop=1;jettySize=auto;html=1;" edge="1" parent="1" source="tFuoKVOrlk1BkcrprUGc-22" target="tFuoKVOrlk1BkcrprUGc-24">
          <mxGeometry relative="1" as="geometry" />
        </mxCell>
        <mxCell id="tFuoKVOrlk1BkcrprUGc-22" value="size" style="shape=parallelogram;perimeter=parallelogramPerimeter;whiteSpace=wrap;html=1;fixedSize=1;" vertex="1" parent="1">
          <mxGeometry x="365" y="1210" width="120" height="60" as="geometry" />
        </mxCell>
        <mxCell id="tFuoKVOrlk1BkcrprUGc-24" value="END" style="rounded=1;whiteSpace=wrap;html=1;arcSize=50;" vertex="1" parent="1">
          <mxGeometry x="365" y="1340" width="120" height="60" as="geometry" />
        </mxCell>
      </root>
    </mxGraphModel>
  </diagram>
</mxfile>
